<?xml version="1.0" standalone="no"?>
<!DOCTYPE svg PUBLIC "-//W3C//DTD SVG 20010904//EN"
 "http://www.w3.org/TR/2001/REC-SVG-20010904/DTD/svg10.dtd">
<svg version="1.0" xmlns="http://www.w3.org/2000/svg"
 width="512.000000pt" height="512.000000pt" viewBox="0 0 512.000000 512.000000"
 preserveAspectRatio="xMidYMid meet">
<metadata>
Created by potrace 1.11, written by Peter Selinger 2001-2013
</metadata>
<g transform="translate(0.000000,512.000000) scale(0.100000,-0.100000)"
fill="#000000" stroke="none">
<path d="M1300 3790 c-847 -847 -1256 -1263 -1271 -1292 -43 -84 -29 -207 31
-281 50 -59 113 -91 187 -93 133 -5 47 -83 1190 1060 715 715 1042 1035 1065
1043 18 7 44 12 58 12 81 2 52 28 1124 -1043 956 -956 1027 -1025 1079 -1044
140 -53 294 20 344 163 16 46 9 152 -13 195 -9 19 -183 202 -387 405 l-369
370 -3 640 c-1 352 -4 649 -7 660 -19 63 -70 130 -126 162 -45 27 -52 28 -192
28 -136 0 -147 -2 -185 -24 -58 -36 -103 -89 -122 -146 -15 -43 -18 -94 -19
-347 0 -164 -3 -300 -5 -303 -7 -7 -784 774 -781 785 1 6 -2 9 -7 8 -6 -2 -77
63 -159 145 -82 81 -157 147 -166 147 -9 0 -578 -562 -1266 -1250z"/>
<path d="M2320 3750 c-118 -120 -219 -215 -225 -212 -5 3 -7 2 -3 -2 4 -5
-288 -302 -648 -660 l-654 -653 0 -829 c1 -546 4 -844 11 -874 6 -25 12 -50
13 -56 1 -6 17 -42 36 -80 68 -140 230 -265 380 -293 56 -10 2639 -11 2670 0
8 3 38 13 67 23 59 20 152 78 201 125 47 46 106 141 134 214 l23 62 3 835 c1
459 0 846 -3 860 -4 15 -341 360 -875 893 -681 680 -873 867 -891 866 -17 -1
-86 -63 -239 -219z m-289 -1027 c0 -10 2 -26 4 -36 2 -10 11 -63 20 -117 9
-54 18 -105 19 -112 7 -34 16 -86 21 -113 3 -16 9 -55 15 -85 5 -30 12 -73 15
-95 4 -22 8 -47 10 -55 2 -8 7 -35 11 -60 12 -84 21 -110 39 -110 23 0 24 4
40 210 4 41 8 91 10 110 2 19 7 77 10 128 4 51 8 100 10 110 2 9 4 42 4 72 l1
55 20 -25 c39 -51 87 -213 106 -356 21 -161 4 -408 -35 -519 -37 -105 -69
-148 -189 -252 l-33 -28 0 -520 c0 -457 -2 -523 -16 -546 -22 -37 -55 -53
-105 -52 -33 1 -47 7 -72 34 l-31 33 -1 516 c0 283 -4 524 -7 535 -4 11 -23
31 -42 44 -131 89 -195 204 -211 376 -11 127 -11 229 0 237 8 5 7 8 0 8 -6 0
-10 12 -8 28 1 15 5 52 8 82 13 125 53 275 94 355 l26 50 7 -35 c4 -19 10 -69
13 -110 12 -145 17 -195 22 -218 3 -13 -1 -31 -8 -40 -10 -12 -10 -14 0 -8 8
5 12 -2 13 -26 0 -18 2 -40 3 -48 2 -8 6 -50 10 -94 11 -133 44 -157 62 -46 3
14 9 48 14 75 5 28 12 66 15 85 3 19 10 61 16 92 5 32 12 69 14 83 12 69 25
144 30 175 3 19 11 62 17 95 12 69 16 93 17 118 1 9 6 17 11 17 6 0 10 -8 11
-17z m1332 -101 c13 -15 29 -42 36 -61 14 -42 16 -2157 2 -2194 -15 -39 -59
-61 -123 -61 -52 -1 -61 3 -90 32 -32 31 -33 34 -36 137 -3 79 -1 110 9 122 9
11 10 14 2 10 -10 -6 -12 38 -12 195 0 112 0 245 0 296 l-1 92 -68 73 c-122
133 -179 278 -168 432 3 44 8 114 10 155 3 41 8 86 10 100 3 14 8 41 10 60 15
94 51 226 68 248 6 6 8 12 5 12 -15 0 85 205 144 296 41 64 64 81 114 86 44 5
60 -1 88 -30z"/>
</g>
</svg>
